<?xml version="1.0" encoding="UTF-8" standalone="no"?>
<!-- Created with Inkscape (http://www.inkscape.org/) -->

<svg
   width="238.808"
   height="227.11993"
   viewBox="0 0 63.184616 60.092149"
   version="1.1"
   id="svg52195"
   sodipodi:docname="5 stars.svg"
   inkscape:version="1.2.2 (732a01da63, 2022-12-09)"
   xmlns:inkscape="http://www.inkscape.org/namespaces/inkscape"
   xmlns:sodipodi="http://sodipodi.sourceforge.net/DTD/sodipodi-0.dtd"
   xmlns="http://www.w3.org/2000/svg"
   xmlns:svg="http://www.w3.org/2000/svg">
  <sodipodi:namedview
     id="namedview6"
     pagecolor="#505050"
     bordercolor="#eeeeee"
     borderopacity="1"
     inkscape:showpageshadow="0"
     inkscape:pageopacity="0"
     inkscape:pagecheckerboard="0"
     inkscape:deskcolor="#505050"
     showgrid="false"
     inkscape:zoom="0.64524447"
     inkscape:cx="424.64525"
     inkscape:cy="390.54965"
     inkscape:window-width="1920"
     inkscape:window-height="1009"
     inkscape:window-x="-8"
     inkscape:window-y="-8"
     inkscape:window-maximized="1"
     inkscape:current-layer="svg52195" />
  <defs
     id="defs52192" />
  <g
     id="layer1"
     transform="translate(-23.598845,-45.359131)"
     inkscape:export-filename="5 stars.png"
     inkscape:export-xdpi="96"
     inkscape:export-ydpi="96">
    <path
       style="fill:#f4ce14;fill-opacity:1;stroke:#000000;stroke-width:0;stroke-linejoin:bevel;stroke-miterlimit:0;stroke-dasharray:none"
       id="path1725"
       d="M 55.191155,111.79537 47.565662,89.072837 23.598845,88.842212 42.852849,74.568289 35.666032,51.703224 55.191155,65.603986 74.716275,51.703223 67.52946,74.56829 86.783465,88.842211 62.816646,89.072837 Z"
       transform="matrix(1,0,0,-1,0,157.1545)" />
  </g>
  <g
     id="layer1-5"
     transform="translate(44.877442,-45.35913)">
    <path
       style="fill:#f4ce14;fill-opacity:1;stroke:#000000;stroke-width:0;stroke-linejoin:bevel;stroke-miterlimit:0;stroke-dasharray:none"
       id="path1725-5"
       d="M 55.191155,111.79537 47.565662,89.072837 23.598845,88.842212 42.852849,74.568289 35.666032,51.703224 55.191155,65.603986 74.716275,51.703223 67.52946,74.56829 86.783465,88.842211 62.816646,89.072837 Z"
       transform="matrix(1,0,0,-1,0,157.1545)" />
  </g>
  <g
     id="layer1-6"
     transform="translate(113.35373,-45.35913)">
    <path
       style="fill:#f4ce14;fill-opacity:1;stroke:#000000;stroke-width:0;stroke-linejoin:bevel;stroke-miterlimit:0;stroke-dasharray:none"
       id="path1725-57"
       d="M 55.191155,111.79537 47.565662,89.072837 23.598845,88.842212 42.852849,74.568289 35.666032,51.703224 55.191155,65.603986 74.716275,51.703223 67.52946,74.56829 86.783465,88.842211 62.816646,89.072837 Z"
       transform="matrix(1,0,0,-1,0,157.1545)" />
  </g>
  <g
     id="layer1-5-0"
     transform="translate(181.83003,-45.359129)">
    <path
       style="fill:#f4ce14;fill-opacity:1;stroke:#000000;stroke-width:0;stroke-linejoin:bevel;stroke-miterlimit:0;stroke-dasharray:none"
       id="path1725-5-3"
       d="M 55.191155,111.79537 47.565662,89.072837 23.598845,88.842212 42.852849,74.568289 35.666032,51.703224 55.191155,65.603986 74.716275,51.703223 67.52946,74.56829 86.783465,88.842211 62.816646,89.072837 Z"
       transform="matrix(1,0,0,-1,0,157.1545)" />
  </g>
  <g
     id="layer1-5-0-8"
     transform="translate(250.30631,-45.359129)">
    <path
       style="fill:#f4ce14;fill-opacity:1;stroke:#000000;stroke-width:0;stroke-linejoin:bevel;stroke-miterlimit:0;stroke-dasharray:none"
       id="path1725-5-3-4"
       d="M 55.191155,111.79537 47.565662,89.072837 23.598845,88.842212 42.852849,74.568289 35.666032,51.703224 55.191155,65.603986 74.716275,51.703223 67.52946,74.56829 86.783465,88.842211 62.816646,89.072837 Z"
       transform="matrix(1,0,0,-1,0,157.1545)" />
  </g>
</svg>
